<?xml version="1.0" encoding="utf-8"?>
<!-- Generator: Adobe Illustrator 16.0.3, SVG Export Plug-In . SVG Version: 6.00 Build 0)  -->
<!DOCTYPE svg PUBLIC "-//W3C//DTD SVG 1.1//EN" "http://www.w3.org/Graphics/SVG/1.1/DTD/svg11.dtd">
<svg version="1.1" id="Ebene_1" xmlns="http://www.w3.org/2000/svg" xmlns:xlink="http://www.w3.org/1999/xlink" x="0px" y="0px"
	 width="227.078px" height="70.52px" viewBox="0 0 227.078 70.52" enable-background="new 0 0 227.078 70.52" xml:space="preserve">
<rect x="179.503" y="30.585" transform="matrix(-0.5001 -0.866 0.866 -0.5001 240.3692 207.4338)" fill-rule="evenodd" clip-rule="evenodd" fill="#205B9E" width="1.105" height="7.511"/>
<rect x="179.503" y="30.585" transform="matrix(-0.5001 -0.866 0.866 -0.5001 240.3692 207.4338)" fill="none" stroke="#205B9E" stroke-width="0.216" stroke-miterlimit="22.9256" width="1.105" height="7.511"/>
<rect x="185.417" y="34.342" transform="matrix(-0.8658 -0.5004 0.5004 -0.8658 328.0075 163.388)" fill-rule="evenodd" clip-rule="evenodd" fill="#205B9E" width="0.991" height="6.739"/>
<rect x="185.417" y="34.342" transform="matrix(-0.8658 -0.5004 0.5004 -0.8658 328.0075 163.388)" fill="none" stroke="#205B9E" stroke-width="0.216" stroke-miterlimit="22.9256" width="0.991" height="6.739"/>
<rect x="191.308" y="34.078" fill-rule="evenodd" clip-rule="evenodd" fill="#205B9E" width="0.86" height="5.843"/>
<rect x="191.308" y="34.078" fill="none" stroke="#205B9E" stroke-width="0.216" stroke-miterlimit="22.9256" width="0.86" height="5.843"/>
<rect x="141.931" y="26.378" fill-rule="evenodd" clip-rule="evenodd" fill="#205B9E" width="18.354" height="2.701"/>
<rect x="141.931" y="26.378" fill="none" stroke="#205B9E" stroke-width="0.216" stroke-miterlimit="22.9256" width="18.354" height="2.701"/>
<rect x="157.179" y="38.26" transform="matrix(-0.5003 -0.8659 0.8659 -0.5003 197.0283 207.7571)" fill-rule="evenodd" clip-rule="evenodd" fill="#205B9E" width="2.579" height="17.521"/>
<rect x="157.179" y="38.26" transform="matrix(-0.5003 -0.8659 0.8659 -0.5003 197.0283 207.7571)" fill="none" stroke="#205B9E" stroke-width="0.216" stroke-miterlimit="22.9256" width="2.579" height="17.521"/>
<rect x="172.23" y="51.008" transform="matrix(-0.866 -0.5 0.5 -0.866 293.9943 197.4846)" fill-rule="evenodd" clip-rule="evenodd" fill="#205B9E" width="2.455" height="16.686"/>
<rect x="172.23" y="51.008" transform="matrix(-0.866 -0.5 0.5 -0.866 293.9943 197.4846)" fill="none" stroke="#205B9E" stroke-width="0.216" stroke-miterlimit="22.9256" width="2.455" height="16.686"/>
<rect x="190.547" y="54.204" fill-rule="evenodd" clip-rule="evenodd" fill="#205B9E" stroke="#205B9E" stroke-miterlimit="10" width="2.333" height="15.853"/>
<rect x="190.547" y="54.204" fill="none" stroke="#205B9E" stroke-width="0.216" stroke-miterlimit="22.9256" width="2.333" height="15.853"/>
<rect x="206.836" y="48.363" transform="matrix(-0.8659 0.5002 -0.5002 -0.8659 415.9493 0.2517)" fill-rule="evenodd" clip-rule="evenodd" fill="#205B9E" stroke="#205B9E" stroke-miterlimit="10" width="2.209" height="15.019"/>
<rect x="206.836" y="48.363" transform="matrix(-0.8659 0.5002 -0.5002 -0.8659 415.9493 0.2517)" fill="none" stroke="#205B9E" stroke-width="0.216" stroke-miterlimit="22.9256" width="2.209" height="15.019"/>
<rect x="217.208" y="35.915" transform="matrix(-0.5001 0.866 -0.866 -0.5001 364.644 -124.4822)" fill-rule="evenodd" clip-rule="evenodd" fill="#205B9E" stroke="#205B9E" stroke-miterlimit="10" width="2.087" height="14.184"/>
<rect x="217.208" y="35.915" transform="matrix(-0.5001 0.866 -0.866 -0.5001 364.644 -124.4822)" fill="none" stroke="#205B9E" stroke-width="0.216" stroke-miterlimit="22.9256" width="2.087" height="14.184"/>
<rect x="213.62" y="26.778" fill-rule="evenodd" clip-rule="evenodd" fill="#205B9E" width="13.35" height="1.964"/>
<rect x="213.62" y="26.778" fill="none" stroke="#205B9E" stroke-width="0.216" stroke-miterlimit="22.9256" width="13.35" height="1.964"/>
<rect x="213.94" y="8.188" transform="matrix(-0.4999 -0.8661 0.8661 -0.4999 309.7555 207.7417)" fill-rule="evenodd" clip-rule="evenodd" fill="#205B9E" stroke="#205B9E" stroke-miterlimit="10" width="1.838" height="12.493"/>
<rect x="213.94" y="8.188" transform="matrix(-0.4999 -0.8661 0.8661 -0.4999 309.7555 207.7417)" fill="none" stroke="#205B9E" stroke-width="0.216" stroke-miterlimit="22.9256" width="1.838" height="12.493"/>
<rect x="203.021" y="0.89" transform="matrix(-0.8659 -0.5003 0.5003 -0.8659 377.0477 114.553)" fill-rule="evenodd" clip-rule="evenodd" fill="#205B9E" width="1.719" height="11.682"/>
<rect x="203.021" y="0.89" transform="matrix(-0.8659 -0.5003 0.5003 -0.8659 377.0477 114.553)" fill="none" stroke="#205B9E" stroke-width="0.216" stroke-miterlimit="22.9256" width="1.719" height="11.682"/>
<rect x="191.014" y="0.108" fill-rule="evenodd" clip-rule="evenodd" fill="#205B9E" width="1.596" height="10.848"/>
<rect x="191.014" y="0.108" fill="none" stroke="#205B9E" stroke-width="0.216" stroke-miterlimit="22.9256" width="1.596" height="10.848"/>
<rect x="181.014" y="5.254" transform="matrix(-0.8661 0.5 -0.5 -0.8661 344.287 -71.7192)" fill-rule="evenodd" clip-rule="evenodd" fill="#205B9E" width="1.474" height="10.013"/>
<rect x="181.014" y="5.254" transform="matrix(-0.8661 0.5 -0.5 -0.8661 344.287 -71.7192)" fill="none" stroke="#205B9E" stroke-width="0.216" stroke-miterlimit="22.9256" width="1.474" height="10.013"/>
<rect x="175.74" y="14.234" transform="matrix(-0.4998 0.8661 -0.8661 -0.4998 280.89 -124.5716)" fill-rule="evenodd" clip-rule="evenodd" fill="#205B9E" width="1.35" height="9.177"/>
<rect x="175.74" y="14.234" transform="matrix(-0.4998 0.8661 -0.8661 -0.4998 280.89 -124.5716)" fill="none" stroke="#205B9E" stroke-width="0.216" stroke-miterlimit="22.9256" width="1.35" height="9.177"/>
<rect x="171.905" y="27.057" fill-rule="evenodd" clip-rule="evenodd" fill="#205B9E" width="8.376" height="1.233"/>
<rect x="171.905" y="27.057" fill="none" stroke="#205B9E" stroke-width="0.216" stroke-miterlimit="22.9256" width="8.376" height="1.233"/>
<rect x="195.169" y="31.757" transform="matrix(-0.8661 0.4999 -0.4999 -0.8661 382.0158 -33.8169)" fill-rule="evenodd" clip-rule="evenodd" fill="#205B9E" width="0.737" height="5.01"/>
<rect x="195.169" y="31.757" transform="matrix(-0.8661 0.4999 -0.4999 -0.8661 382.0158 -33.8169)" fill="none" stroke="#205B9E" stroke-width="0.216" stroke-miterlimit="22.9256" width="0.737" height="5.01"/>
<rect x="196.133" y="28.259" transform="matrix(-0.5001 0.8659 -0.8659 -0.5001 321.0223 -124.5127)" fill-rule="evenodd" clip-rule="evenodd" fill="#205B9E" width="0.629" height="4.275"/>
<rect x="196.133" y="28.259" transform="matrix(-0.5001 0.8659 -0.8659 -0.5001 321.0223 -124.5127)" fill="none" stroke="#205B9E" stroke-width="0.216" stroke-miterlimit="22.9256" width="0.629" height="4.275"/>
<rect x="193.473" y="27.432" fill-rule="evenodd" clip-rule="evenodd" fill="#205B9E" width="3.345" height="0.493"/>
<rect x="193.473" y="27.432" fill="none" stroke="#205B9E" stroke-width="0.216" stroke-miterlimit="22.9256" width="3.345" height="0.493"/>
<path fill="#1A171B" d="M36.214,24.056v-4.594h1.624v4.594H36.214z M36.133,18.028c0-0.245,0.086-0.455,0.261-0.627
	c0.175-0.172,0.385-0.259,0.63-0.259c0.254,0,0.467,0.085,0.64,0.254c0.17,0.169,0.256,0.38,0.256,0.632s-0.087,0.466-0.261,0.642
	c-0.175,0.175-0.387,0.264-0.635,0.264c-0.242,0-0.452-0.09-0.627-0.269C36.222,18.486,36.133,18.274,36.133,18.028z M30.028,17.005
	h1.546v2.402c0,0.194-0.003,0.355-0.011,0.484c-0.008,0.129-0.02,0.239-0.034,0.333c0.188-0.328,0.404-0.56,0.647-0.7
	c0.244-0.14,0.562-0.21,0.953-0.21c0.612,0,1.109,0.226,1.489,0.676c0.38,0.45,0.571,1.04,0.571,1.771
	c0,0.756-0.192,1.355-0.576,1.801c-0.383,0.445-0.896,0.669-1.539,0.669c-0.315,0-0.603-0.076-0.86-0.23
	c-0.258-0.153-0.489-0.385-0.696-0.694v0.747h-1.492V17.005z M31.466,21.763c0,0.357,0.093,0.64,0.279,0.846s0.443,0.309,0.77,0.309
	c0.331,0,0.59-0.102,0.778-0.307c0.188-0.205,0.283-0.487,0.283-0.848c0-0.357-0.095-0.64-0.285-0.846
	c-0.189-0.207-0.449-0.309-0.776-0.309c-0.327,0-0.583,0.103-0.77,0.309S31.466,21.405,31.466,21.763z M24.8,17.993
	c0-0.172,0.065-0.323,0.197-0.452s0.287-0.194,0.463-0.194c0.182,0,0.335,0.063,0.459,0.189c0.125,0.126,0.187,0.278,0.187,0.457
	c0,0.191-0.061,0.349-0.182,0.474c-0.121,0.124-0.276,0.187-0.464,0.187c-0.182,0-0.337-0.064-0.466-0.191
	C24.865,18.334,24.8,18.177,24.8,17.993z M26.58,17.993c0-0.172,0.065-0.323,0.194-0.452s0.283-0.194,0.461-0.194
	c0.179,0,0.333,0.063,0.46,0.189s0.191,0.278,0.191,0.457c0,0.188-0.062,0.345-0.187,0.47c-0.124,0.125-0.279,0.19-0.464,0.19
	c-0.185,0-0.34-0.064-0.465-0.191C26.643,18.334,26.58,18.177,26.58,17.993z M28.793,19.461v4.594h-1.487v-0.747
	c-0.213,0.318-0.45,0.553-0.716,0.7c-0.266,0.149-0.578,0.224-0.935,0.224c-0.613,0-1.103-0.224-1.47-0.671
	c-0.367-0.447-0.55-1.046-0.55-1.799c0-0.749,0.193-1.345,0.576-1.786c0.384-0.44,0.899-0.661,1.548-0.661
	c0.346,0,0.644,0.073,0.895,0.221c0.25,0.147,0.464,0.374,0.643,0.68v-0.755H28.793z M27.37,21.753c0-0.359-0.096-0.642-0.287-0.851
	c-0.191-0.209-0.452-0.314-0.781-0.314c-0.331,0-0.591,0.104-0.781,0.313c-0.189,0.207-0.284,0.492-0.284,0.853
	c0,0.357,0.096,0.64,0.287,0.846c0.191,0.207,0.45,0.31,0.778,0.31c0.329,0,0.59-0.103,0.781-0.31
	C27.273,22.393,27.37,22.11,27.37,21.753z M20.019,19.461l0.679,2.03l0.014,0.036c0.099,0.286,0.163,0.512,0.191,0.683
	c0.017-0.098,0.042-0.199,0.07-0.306c0.029-0.105,0.071-0.242,0.126-0.408l0.69-2.034h1.679l-1.929,4.594h-1.146l-0.683-2.079
	c-0.036-0.118-0.068-0.238-0.098-0.357c-0.028-0.12-0.054-0.239-0.079-0.357c-0.033,0.182-0.093,0.412-0.177,0.688l-0.009,0.031
	l-0.678,2.074h-1.146l-1.919-4.594h1.668l0.687,2.034c0.053,0.147,0.093,0.278,0.123,0.388c0.031,0.11,0.056,0.219,0.073,0.326
	c0.028-0.152,0.087-0.363,0.179-0.633c0.011-0.036,0.021-0.063,0.026-0.081l0.683-2.034H20.019z M10.304,24.056v-7.05h1.591v2.473
	c0,0.165-0.004,0.317-0.014,0.455c-0.01,0.14-0.022,0.266-0.041,0.378c0.204-0.343,0.443-0.594,0.719-0.756
	c0.276-0.16,0.605-0.241,0.988-0.241c0.296,0,0.562,0.048,0.793,0.143c0.233,0.096,0.421,0.233,0.567,0.412
	c0.121,0.155,0.208,0.343,0.259,0.565c0.051,0.221,0.078,0.551,0.078,0.99v2.63h-1.624v-2.46c0-0.368-0.061-0.634-0.18-0.801
	c-0.12-0.167-0.312-0.25-0.576-0.25c-0.337,0-0.582,0.124-0.736,0.373c-0.155,0.248-0.233,0.652-0.233,1.211v1.928H10.304z
	 M9.307,20.972c-0.158-0.14-0.309-0.241-0.455-0.304c-0.146-0.064-0.298-0.096-0.459-0.096c-0.321,0-0.578,0.105-0.767,0.318
	c-0.189,0.213-0.284,0.5-0.284,0.864c0,0.352,0.098,0.632,0.294,0.841c0.197,0.21,0.463,0.314,0.797,0.314
	c0.165,0,0.318-0.033,0.462-0.098c0.145-0.065,0.281-0.166,0.412-0.303v1.407c-0.194,0.109-0.388,0.19-0.582,0.241
	c-0.194,0.051-0.395,0.078-0.601,0.078c-0.707,0-1.278-0.227-1.717-0.68C5.969,23.1,5.75,22.503,5.75,21.763
	c0-0.719,0.224-1.306,0.67-1.762c0.447-0.457,1.022-0.685,1.722-0.685c0.233,0,0.444,0.023,0.632,0.068
	c0.188,0.045,0.367,0.118,0.533,0.219V20.972z M1.005,21.904c0.27,0.306,0.537,0.536,0.799,0.686
	c0.263,0.152,0.523,0.229,0.784,0.229c0.243,0,0.443-0.065,0.598-0.195c0.157-0.131,0.234-0.295,0.234-0.496
	c0-0.222-0.067-0.393-0.202-0.512c-0.135-0.12-0.441-0.244-0.916-0.371c-0.652-0.176-1.113-0.405-1.384-0.686
	c-0.27-0.283-0.405-0.67-0.405-1.16c0-0.637,0.213-1.157,0.64-1.559c0.425-0.402,0.979-0.603,1.657-0.603
	c0.368,0,0.716,0.05,1.045,0.147c0.329,0.099,0.639,0.249,0.934,0.449l-0.568,1.306c-0.206-0.175-0.417-0.309-0.635-0.399
	c-0.217-0.088-0.432-0.133-0.643-0.133c-0.219,0-0.396,0.053-0.533,0.157s-0.205,0.239-0.205,0.402c0,0.167,0.061,0.301,0.18,0.401
	c0.12,0.101,0.351,0.195,0.693,0.287l0.082,0.023c0.741,0.199,1.227,0.419,1.459,0.658c0.159,0.165,0.278,0.36,0.36,0.59
	c0.082,0.228,0.123,0.483,0.123,0.761c0,0.707-0.231,1.275-0.696,1.703c-0.464,0.43-1.082,0.645-1.855,0.645
	c-0.464,0-0.886-0.079-1.267-0.236c-0.38-0.158-0.747-0.405-1.1-0.742L1.005,21.904z M121.534,10.905h-3.494
	c0.003,0.356,0.095,0.629,0.273,0.821c0.179,0.193,0.432,0.289,0.76,0.289c0.245,0,0.453-0.047,0.621-0.139
	c0.169-0.093,0.296-0.231,0.385-0.413l1.219,0.492c-0.146,0.351-0.403,0.623-0.773,0.813c-0.369,0.191-0.822,0.287-1.36,0.287
	c-0.801,0-1.442-0.222-1.927-0.666c-0.482-0.444-0.725-1.031-0.725-1.76c0-0.714,0.242-1.309,0.725-1.782
	c0.484-0.474,1.097-0.709,1.836-0.709c0.761,0,1.361,0.239,1.801,0.719c0.439,0.478,0.66,1.135,0.66,1.969V10.905z M119.938,9.99
	c-0.031-0.261-0.131-0.469-0.298-0.627c-0.168-0.157-0.376-0.236-0.621-0.236c-0.264,0-0.474,0.071-0.63,0.216
	s-0.26,0.36-0.313,0.647H119.938z M113.91,12.88V5.83h1.624v7.05H113.91z M112.7,8.285v2.348c0,0.519-0.042,0.902-0.125,1.152
	c-0.082,0.25-0.224,0.472-0.421,0.666c-0.202,0.204-0.457,0.355-0.759,0.455c-0.303,0.102-0.66,0.151-1.068,0.151
	c-0.407,0-0.761-0.049-1.063-0.151c-0.301-0.099-0.559-0.251-0.77-0.455c-0.197-0.188-0.337-0.408-0.419-0.662
	c-0.083-0.252-0.123-0.638-0.123-1.156V8.285h1.546v2.452c0,0.385,0.063,0.663,0.191,0.833c0.127,0.172,0.334,0.258,0.62,0.258
	c0.288,0,0.494-0.083,0.62-0.253c0.126-0.168,0.189-0.447,0.189-0.838V8.285H112.7z M101.906,12.88V5.83h1.591v2.473
	c0,0.164-0.004,0.316-0.014,0.455c-0.009,0.14-0.022,0.266-0.041,0.379c0.203-0.343,0.443-0.595,0.719-0.756
	c0.276-0.16,0.605-0.241,0.988-0.241c0.296,0,0.562,0.048,0.793,0.143c0.233,0.096,0.421,0.233,0.566,0.412
	c0.121,0.155,0.208,0.343,0.26,0.565c0.051,0.221,0.077,0.551,0.077,0.991v2.63h-1.624v-2.461c0-0.368-0.061-0.634-0.18-0.801
	c-0.119-0.166-0.312-0.25-0.576-0.25c-0.337,0-0.582,0.124-0.736,0.373c-0.155,0.249-0.233,0.652-0.233,1.211v1.929H101.906z
	 M100.909,9.796c-0.158-0.14-0.309-0.241-0.455-0.305c-0.146-0.063-0.298-0.096-0.459-0.096c-0.321,0-0.578,0.106-0.767,0.318
	c-0.19,0.213-0.284,0.5-0.284,0.863c0,0.353,0.098,0.632,0.295,0.842s0.462,0.313,0.796,0.313c0.165,0,0.319-0.033,0.463-0.098
	c0.145-0.065,0.281-0.167,0.412-0.303v1.407c-0.194,0.108-0.388,0.189-0.583,0.241c-0.194,0.051-0.394,0.077-0.601,0.077
	c-0.707,0-1.278-0.226-1.717-0.68c-0.438-0.454-0.657-1.05-0.657-1.791c0-0.719,0.224-1.306,0.671-1.762
	c0.447-0.457,1.021-0.685,1.722-0.685c0.233,0,0.444,0.023,0.632,0.068c0.188,0.045,0.366,0.118,0.532,0.219V9.796z M92.677,12.498
	l0.335-1.237c0.238,0.206,0.497,0.365,0.781,0.475c0.284,0.11,0.569,0.167,0.857,0.167c0.204,0,0.358-0.033,0.464-0.098
	c0.107-0.065,0.16-0.16,0.16-0.285c0-0.204-0.214-0.355-0.641-0.455c-0.14-0.034-0.253-0.062-0.338-0.086
	c-0.485-0.134-0.837-0.308-1.058-0.525c-0.219-0.218-0.329-0.499-0.329-0.845c0-0.446,0.168-0.801,0.503-1.068
	c0.335-0.267,0.789-0.4,1.361-0.4c0.295,0,0.595,0.034,0.899,0.102c0.304,0.068,0.617,0.174,0.935,0.315L96.27,9.672
	c-0.214-0.146-0.433-0.256-0.655-0.332c-0.221-0.076-0.443-0.114-0.665-0.114c-0.185,0-0.325,0.03-0.417,0.087
	c-0.095,0.057-0.142,0.14-0.142,0.25c0,0.163,0.212,0.301,0.638,0.414c0.096,0.028,0.169,0.048,0.217,0.059
	c0.562,0.162,0.952,0.351,1.172,0.567c0.219,0.217,0.329,0.511,0.329,0.88c0,0.47-0.18,0.851-0.542,1.14
	c-0.36,0.291-0.838,0.435-1.432,0.435c-0.403,0-0.778-0.046-1.124-0.138C93.304,12.826,92.979,12.686,92.677,12.498z M87.022,12.88
	V5.83h1.592v2.473c0,0.164-0.005,0.316-0.014,0.455c-0.009,0.14-0.021,0.266-0.041,0.379c0.204-0.343,0.443-0.595,0.719-0.756
	c0.276-0.16,0.605-0.241,0.987-0.241c0.297,0,0.562,0.048,0.793,0.143c0.233,0.096,0.421,0.233,0.567,0.412
	c0.121,0.155,0.208,0.343,0.259,0.565c0.051,0.221,0.077,0.551,0.077,0.991v2.63h-1.624v-2.461c0-0.368-0.061-0.634-0.18-0.801
	c-0.12-0.166-0.312-0.25-0.576-0.25c-0.337,0-0.583,0.124-0.736,0.373c-0.155,0.249-0.233,0.652-0.233,1.211v1.929H87.022z
	 M86.025,9.796c-0.158-0.14-0.309-0.241-0.455-0.305s-0.298-0.096-0.459-0.096c-0.322,0-0.578,0.106-0.767,0.318
	c-0.189,0.213-0.284,0.5-0.284,0.863c0,0.353,0.098,0.632,0.295,0.842s0.462,0.313,0.796,0.313c0.165,0,0.318-0.033,0.463-0.098
	c0.145-0.065,0.281-0.167,0.411-0.303v1.407c-0.194,0.108-0.388,0.189-0.582,0.241c-0.194,0.051-0.394,0.077-0.601,0.077
	c-0.707,0-1.278-0.226-1.717-0.68c-0.438-0.454-0.657-1.05-0.657-1.791c0-0.719,0.224-1.306,0.671-1.762S84.16,8.14,84.861,8.14
	c0.232,0,0.444,0.023,0.632,0.068c0.188,0.045,0.366,0.118,0.532,0.219V9.796z M81.795,10.596c0,0.331-0.065,0.645-0.194,0.941
	c-0.128,0.298-0.315,0.565-0.56,0.801c-0.25,0.236-0.528,0.416-0.836,0.538c-0.307,0.121-0.635,0.181-0.979,0.181
	c-0.353,0-0.682-0.061-0.991-0.181c-0.307-0.122-0.583-0.301-0.824-0.538c-0.244-0.23-0.429-0.495-0.556-0.793
	c-0.127-0.299-0.191-0.615-0.191-0.949c0-0.337,0.064-0.653,0.189-0.95c0.126-0.298,0.311-0.565,0.558-0.801
	c0.239-0.233,0.512-0.41,0.819-0.528c0.31-0.118,0.64-0.177,0.996-0.177c0.354,0,0.685,0.059,0.991,0.177
	c0.308,0.118,0.581,0.295,0.825,0.528c0.248,0.239,0.436,0.507,0.563,0.806C81.732,9.947,81.795,10.262,81.795,10.596z
	 M80.186,10.596c0-0.343-0.087-0.613-0.259-0.811s-0.407-0.295-0.7-0.295c-0.298,0-0.533,0.098-0.704,0.295
	c-0.172,0.197-0.258,0.468-0.258,0.811c0,0.343,0.085,0.612,0.255,0.808c0.171,0.196,0.405,0.293,0.707,0.293
	c0.296,0,0.531-0.097,0.702-0.293C80.101,11.208,80.186,10.939,80.186,10.596z M69.567,12.88V6.22h1.815v2.588h2.419V6.22h1.82v6.66
	h-1.82v-2.711h-2.419v2.711H69.567z M65.609,10.905h-3.493c0.003,0.356,0.095,0.629,0.273,0.821
	c0.178,0.193,0.431,0.289,0.759,0.289c0.246,0,0.454-0.047,0.621-0.139c0.169-0.093,0.297-0.231,0.385-0.413l1.219,0.492
	c-0.146,0.351-0.404,0.623-0.773,0.813c-0.369,0.191-0.823,0.287-1.36,0.287c-0.801,0-1.443-0.222-1.927-0.666
	c-0.483-0.444-0.725-1.031-0.725-1.76c0-0.714,0.242-1.309,0.725-1.782c0.484-0.474,1.096-0.709,1.835-0.709
	c0.761,0,1.362,0.239,1.801,0.719c0.439,0.478,0.66,1.135,0.66,1.969V10.905z M64.013,9.99c-0.031-0.261-0.131-0.469-0.298-0.627
	c-0.168-0.157-0.376-0.236-0.621-0.236c-0.264,0-0.474,0.071-0.63,0.216c-0.155,0.145-0.259,0.36-0.312,0.647H64.013z M54.765,12.88
	V5.83h1.591v2.473c0,0.164-0.004,0.316-0.014,0.455c-0.009,0.14-0.022,0.266-0.041,0.379c0.204-0.343,0.443-0.595,0.719-0.756
	c0.276-0.16,0.605-0.241,0.987-0.241c0.296,0,0.562,0.048,0.793,0.143c0.233,0.096,0.421,0.233,0.566,0.412
	c0.122,0.155,0.208,0.343,0.26,0.565c0.051,0.221,0.077,0.551,0.077,0.991v2.63h-1.624v-2.461c0-0.368-0.061-0.634-0.181-0.801
	c-0.119-0.166-0.312-0.25-0.576-0.25c-0.337,0-0.583,0.124-0.736,0.373c-0.156,0.249-0.233,0.652-0.233,1.211v1.929H54.765z
	 M53.768,9.796c-0.158-0.14-0.309-0.241-0.455-0.305s-0.298-0.096-0.459-0.096c-0.322,0-0.578,0.106-0.767,0.318
	c-0.19,0.213-0.284,0.5-0.284,0.863c0,0.353,0.098,0.632,0.295,0.842s0.462,0.313,0.796,0.313c0.165,0,0.318-0.033,0.463-0.098
	c0.144-0.065,0.281-0.167,0.411-0.303v1.407c-0.194,0.108-0.388,0.189-0.582,0.241c-0.194,0.051-0.395,0.077-0.601,0.077
	c-0.707,0-1.278-0.226-1.717-0.68c-0.438-0.454-0.657-1.05-0.657-1.791c0-0.719,0.224-1.306,0.671-1.762
	c0.447-0.457,1.021-0.685,1.722-0.685c0.233,0,0.444,0.023,0.632,0.068c0.188,0.045,0.366,0.118,0.532,0.219V9.796z M45.536,12.498
	l0.335-1.237c0.238,0.206,0.497,0.365,0.781,0.475c0.284,0.11,0.57,0.167,0.857,0.167c0.204,0,0.359-0.033,0.464-0.098
	c0.107-0.065,0.16-0.16,0.16-0.285c0-0.204-0.214-0.355-0.642-0.455c-0.14-0.034-0.253-0.062-0.338-0.086
	c-0.484-0.134-0.837-0.308-1.058-0.525c-0.219-0.218-0.329-0.499-0.329-0.845c0-0.446,0.168-0.801,0.503-1.068
	c0.335-0.267,0.789-0.4,1.362-0.4c0.294,0,0.594,0.034,0.899,0.102c0.304,0.068,0.616,0.174,0.935,0.315l-0.337,1.115
	c-0.214-0.146-0.433-0.256-0.655-0.332c-0.221-0.076-0.442-0.114-0.665-0.114c-0.185,0-0.325,0.03-0.417,0.087
	c-0.095,0.057-0.142,0.14-0.142,0.25c0,0.163,0.212,0.301,0.638,0.414c0.096,0.028,0.169,0.048,0.217,0.059
	c0.562,0.162,0.952,0.351,1.172,0.567c0.219,0.217,0.329,0.511,0.329,0.88c0,0.47-0.18,0.851-0.542,1.14
	c-0.36,0.291-0.839,0.435-1.432,0.435c-0.404,0-0.778-0.046-1.125-0.138C46.163,12.826,45.839,12.686,45.536,12.498z M43.101,12.88
	V8.285h1.625v4.595H43.101z M43.021,6.852c0-0.245,0.087-0.455,0.261-0.627c0.175-0.172,0.385-0.259,0.631-0.259
	c0.254,0,0.467,0.085,0.639,0.254c0.171,0.169,0.256,0.38,0.256,0.632c0,0.252-0.087,0.466-0.261,0.642
	c-0.175,0.175-0.386,0.264-0.634,0.264c-0.243,0-0.452-0.09-0.627-0.269C43.109,7.311,43.021,7.098,43.021,6.852z M41.831,8.285
	v4.585c0,0.696-0.211,1.208-0.635,1.541c-0.422,0.332-1.078,0.498-1.963,0.498c-0.716,0-1.276-0.132-1.683-0.397
	s-0.621-0.641-0.646-1.127h1.679c0.025,0.143,0.104,0.255,0.239,0.335c0.135,0.081,0.313,0.121,0.534,0.121
	c0.349,0,0.589-0.084,0.72-0.253c0.132-0.167,0.199-0.522,0.199-1.062v-0.419c-0.169,0.289-0.387,0.503-0.65,0.645
	c-0.264,0.141-0.578,0.211-0.941,0.211c-0.607,0-1.093-0.219-1.461-0.657c-0.366-0.439-0.549-1.023-0.549-1.754
	c0-0.737,0.192-1.323,0.576-1.759c0.384-0.435,0.899-0.652,1.548-0.652c0.344,0,0.638,0.071,0.89,0.214
	c0.25,0.143,0.466,0.365,0.647,0.668V8.285H41.831z M40.407,10.568c0-0.354-0.095-0.632-0.284-0.834
	c-0.189-0.202-0.45-0.303-0.784-0.303c-0.337,0-0.601,0.101-0.793,0.303c-0.192,0.202-0.289,0.48-0.289,0.834
	c0,0.353,0.096,0.63,0.289,0.834c0.193,0.203,0.457,0.304,0.793,0.304c0.331,0,0.59-0.101,0.781-0.304
	C40.311,11.198,40.407,10.92,40.407,10.568z M35.975,10.596c0,0.331-0.065,0.645-0.194,0.941c-0.129,0.298-0.315,0.565-0.56,0.801
	c-0.25,0.236-0.528,0.416-0.836,0.538c-0.307,0.121-0.635,0.181-0.979,0.181c-0.353,0-0.682-0.061-0.991-0.181
	c-0.307-0.122-0.582-0.301-0.824-0.538c-0.244-0.23-0.429-0.495-0.556-0.793c-0.127-0.299-0.191-0.615-0.191-0.949
	c0-0.337,0.063-0.653,0.189-0.95c0.126-0.298,0.311-0.565,0.558-0.801c0.239-0.233,0.512-0.41,0.82-0.528
	c0.309-0.118,0.639-0.177,0.995-0.177c0.354,0,0.685,0.059,0.991,0.177c0.307,0.118,0.581,0.295,0.825,0.528
	c0.248,0.239,0.436,0.507,0.563,0.806C35.911,9.947,35.975,10.262,35.975,10.596z M34.364,10.596c0-0.343-0.086-0.613-0.259-0.811
	c-0.172-0.197-0.407-0.295-0.7-0.295c-0.298,0-0.533,0.098-0.703,0.295c-0.172,0.197-0.258,0.468-0.258,0.811
	c0,0.343,0.086,0.612,0.255,0.808c0.171,0.196,0.405,0.293,0.707,0.293c0.296,0,0.531-0.097,0.702-0.293
	C34.279,11.208,34.364,10.939,34.364,10.596z M29.877,8.285v4.585c0,0.696-0.211,1.208-0.635,1.541
	c-0.422,0.332-1.077,0.498-1.962,0.498c-0.716,0-1.276-0.132-1.683-0.397s-0.621-0.641-0.646-1.127h1.679
	c0.025,0.143,0.104,0.255,0.239,0.335c0.135,0.081,0.313,0.121,0.535,0.121c0.349,0,0.588-0.084,0.72-0.253
	c0.132-0.167,0.199-0.522,0.199-1.062v-0.419c-0.169,0.289-0.387,0.503-0.65,0.645c-0.264,0.141-0.578,0.211-0.941,0.211
	c-0.607,0-1.093-0.219-1.46-0.657c-0.367-0.439-0.55-1.023-0.55-1.754c0-0.737,0.193-1.323,0.576-1.759
	c0.384-0.435,0.899-0.652,1.548-0.652c0.343,0,0.638,0.071,0.89,0.214c0.25,0.143,0.466,0.365,0.647,0.668V8.285H29.877z
	 M28.453,10.568c0-0.354-0.095-0.632-0.284-0.834c-0.189-0.202-0.451-0.303-0.784-0.303c-0.337,0-0.601,0.101-0.794,0.303
	c-0.192,0.202-0.289,0.48-0.289,0.834c0,0.353,0.096,0.63,0.289,0.834c0.193,0.203,0.457,0.304,0.794,0.304
	c0.331,0,0.59-0.101,0.781-0.304C28.357,11.198,28.453,10.92,28.453,10.568z M23.727,8.285v4.595H22.24v-0.747
	c-0.213,0.318-0.451,0.552-0.716,0.7c-0.266,0.149-0.578,0.224-0.935,0.224c-0.613,0-1.103-0.224-1.47-0.67
	c-0.366-0.447-0.55-1.046-0.55-1.8c0-0.749,0.193-1.345,0.576-1.786c0.384-0.441,0.899-0.661,1.548-0.661
	c0.346,0,0.644,0.073,0.894,0.22c0.25,0.147,0.464,0.374,0.643,0.68V8.285H23.727z M22.303,10.577c0-0.358-0.096-0.641-0.287-0.851
	c-0.191-0.209-0.452-0.313-0.781-0.313c-0.331,0-0.592,0.104-0.781,0.313c-0.189,0.206-0.284,0.492-0.284,0.852
	c0,0.357,0.096,0.64,0.287,0.846s0.45,0.309,0.778,0.309c0.329,0,0.59-0.103,0.781-0.309S22.303,10.935,22.303,10.577z M17.6,5.83
	v7.05h-1.492v-0.747c-0.207,0.309-0.438,0.54-0.696,0.694c-0.258,0.153-0.545,0.229-0.86,0.229c-0.646,0-1.16-0.224-1.542-0.669
	s-0.573-1.045-0.573-1.801c0-0.731,0.191-1.321,0.571-1.771s0.877-0.675,1.489-0.675c0.389,0,0.705,0.07,0.949,0.209
	c0.244,0.14,0.461,0.373,0.652,0.7c-0.019-0.109-0.031-0.233-0.041-0.371s-0.014-0.287-0.014-0.447V5.83H17.6z M16.162,10.586
	c0-0.357-0.095-0.64-0.284-0.846s-0.447-0.309-0.774-0.309c-0.328,0-0.586,0.103-0.773,0.309c-0.188,0.207-0.283,0.489-0.283,0.846
	c0,0.36,0.093,0.643,0.28,0.848c0.186,0.205,0.445,0.308,0.776,0.308c0.327,0,0.585-0.103,0.774-0.309
	C16.067,11.227,16.162,10.944,16.162,10.586z M7.433,6.817c0-0.173,0.065-0.323,0.197-0.452S7.917,6.17,8.093,6.17
	c0.182,0,0.335,0.063,0.459,0.189c0.125,0.126,0.187,0.278,0.187,0.457c0,0.191-0.061,0.349-0.182,0.474
	C8.436,7.415,8.281,7.477,8.093,7.477c-0.182,0-0.337-0.064-0.466-0.191C7.499,7.158,7.433,7.001,7.433,6.817z M9.212,6.817
	c0-0.173,0.065-0.323,0.194-0.452C9.535,6.236,9.689,6.17,9.868,6.17c0.178,0,0.333,0.063,0.459,0.189
	c0.127,0.126,0.191,0.278,0.191,0.457c0,0.188-0.062,0.344-0.186,0.47c-0.125,0.125-0.28,0.189-0.464,0.189s-0.34-0.064-0.466-0.191
	C9.276,7.158,9.212,7.001,9.212,6.817z M11.426,8.285v4.595H9.939v-0.747c-0.213,0.318-0.451,0.552-0.716,0.7
	c-0.266,0.149-0.578,0.224-0.935,0.224c-0.613,0-1.103-0.224-1.47-0.67c-0.367-0.447-0.55-1.046-0.55-1.8
	c0-0.749,0.193-1.345,0.576-1.786C7.228,8.36,7.744,8.14,8.393,8.14c0.346,0,0.644,0.073,0.895,0.22
	c0.25,0.147,0.464,0.374,0.643,0.68V8.285H11.426z M10.003,10.577c0-0.358-0.097-0.641-0.287-0.851
	C9.524,9.517,9.264,9.413,8.935,9.413c-0.331,0-0.592,0.104-0.781,0.313C7.964,9.931,7.87,10.217,7.87,10.577
	c0,0.357,0.096,0.64,0.287,0.846c0.191,0.207,0.45,0.309,0.778,0.309c0.329,0,0.59-0.103,0.781-0.309
	C9.906,11.217,10.003,10.935,10.003,10.577z M2.412,9.218h0.346c0.437,0,0.741-0.06,0.913-0.18S3.93,8.715,3.93,8.427
	c0-0.28-0.085-0.478-0.254-0.596c-0.17-0.118-0.471-0.177-0.901-0.177H2.412V9.218z M2.412,12.88H0.71V6.22h1.897
	c0.742,0,1.264,0.036,1.565,0.109c0.3,0.073,0.554,0.197,0.764,0.374C5.182,6.905,5.37,7.16,5.498,7.464
	C5.627,7.77,5.691,8.108,5.691,8.481c0,0.397-0.063,0.747-0.191,1.048c-0.127,0.303-0.315,0.549-0.563,0.744
	c-0.188,0.146-0.41,0.25-0.665,0.313c-0.254,0.064-0.663,0.097-1.223,0.097H2.739H2.412V12.88z"/>
<path fill="#1A171B" d="M90.468,17.005v7.05h-1.492v-0.747c-0.206,0.309-0.438,0.541-0.695,0.694c-0.258,0.154-0.545,0.23-0.86,0.23
	c-0.646,0-1.16-0.224-1.542-0.669c-0.382-0.446-0.573-1.045-0.573-1.801c0-0.731,0.19-1.322,0.571-1.771
	c0.38-0.45,0.877-0.676,1.489-0.676c0.388,0,0.705,0.07,0.949,0.21c0.244,0.14,0.461,0.372,0.652,0.7
	c-0.019-0.108-0.031-0.233-0.04-0.371c-0.009-0.139-0.014-0.288-0.014-0.447v-2.402H90.468z M89.03,21.763
	c0-0.357-0.095-0.64-0.284-0.846s-0.447-0.309-0.775-0.309s-0.585,0.103-0.773,0.309s-0.283,0.489-0.283,0.846
	c0,0.36,0.094,0.643,0.28,0.848c0.187,0.205,0.446,0.307,0.776,0.307c0.328,0,0.585-0.102,0.775-0.309S89.03,22.12,89.03,21.763z
	 M79.438,24.056v-4.594h1.483v0.932c0.214-0.372,0.464-0.646,0.746-0.818c0.282-0.172,0.621-0.259,1.016-0.259
	c0.296,0,0.562,0.048,0.793,0.143c0.233,0.096,0.421,0.233,0.567,0.412c0.121,0.155,0.208,0.343,0.259,0.565
	c0.051,0.221,0.078,0.551,0.078,0.99v2.63h-1.624v-2.46c0-0.368-0.061-0.634-0.18-0.801c-0.12-0.167-0.312-0.25-0.576-0.25
	c-0.337,0-0.583,0.124-0.736,0.373c-0.155,0.248-0.233,0.652-0.233,1.211v1.928H79.438z M74.362,17.993
	c0-0.172,0.065-0.323,0.197-0.452s0.287-0.194,0.462-0.194c0.182,0,0.335,0.063,0.46,0.189c0.124,0.126,0.186,0.278,0.186,0.457
	c0,0.191-0.06,0.349-0.182,0.474c-0.121,0.124-0.276,0.187-0.464,0.187c-0.181,0-0.336-0.064-0.466-0.191
	C74.427,18.334,74.362,18.177,74.362,17.993z M76.141,17.993c0-0.172,0.065-0.323,0.194-0.452c0.129-0.129,0.283-0.194,0.462-0.194
	c0.178,0,0.332,0.063,0.459,0.189c0.127,0.126,0.191,0.278,0.191,0.457c0,0.188-0.062,0.345-0.187,0.47
	c-0.124,0.125-0.279,0.19-0.464,0.19c-0.185,0-0.34-0.064-0.466-0.191C76.205,18.334,76.141,18.177,76.141,17.993z M78.273,19.461
	v2.348c0,0.519-0.042,0.902-0.126,1.152c-0.082,0.25-0.224,0.472-0.421,0.666c-0.202,0.203-0.457,0.355-0.759,0.455
	c-0.303,0.101-0.66,0.151-1.068,0.151c-0.407,0-0.761-0.05-1.063-0.151c-0.301-0.099-0.559-0.251-0.77-0.455
	c-0.197-0.188-0.337-0.408-0.419-0.662c-0.082-0.253-0.123-0.638-0.123-1.157v-2.348h1.546v2.452c0,0.385,0.064,0.663,0.191,0.833
	c0.127,0.172,0.334,0.258,0.62,0.258c0.287,0,0.494-0.084,0.62-0.253c0.125-0.168,0.189-0.447,0.189-0.838v-2.452H78.273z
	 M70.809,24.056V21.55c0-0.398-0.05-0.673-0.147-0.825c-0.1-0.151-0.269-0.227-0.512-0.227c-0.303,0-0.514,0.105-0.632,0.316
	c-0.118,0.209-0.177,0.641-0.177,1.293v1.947h-1.565V21.55c0-0.404-0.048-0.68-0.146-0.828c-0.096-0.149-0.267-0.223-0.509-0.223
	c-0.303,0-0.516,0.104-0.637,0.312c-0.121,0.207-0.182,0.64-0.182,1.298v1.947h-1.574v-4.594h1.593v0.801
	c0.191-0.325,0.412-0.563,0.662-0.717s0.545-0.23,0.885-0.23c0.373,0,0.678,0.071,0.916,0.216c0.237,0.145,0.408,0.36,0.512,0.649
	c0.179-0.292,0.397-0.508,0.654-0.65c0.257-0.143,0.562-0.214,0.91-0.214c0.276,0,0.519,0.047,0.725,0.138
	c0.208,0.093,0.382,0.231,0.522,0.417c0.112,0.146,0.191,0.316,0.239,0.511c0.046,0.194,0.07,0.509,0.07,0.945v0.101v2.628H70.809z
	 M60.153,21.603v-1.396h3.567c0.003,0.045,0.006,0.096,0.008,0.15c0.001,0.055,0.001,0.135,0.001,0.241
	c0,1.147-0.303,2.037-0.907,2.669c-0.605,0.632-1.456,0.949-2.554,0.949c-0.541,0-1.02-0.081-1.439-0.244
	c-0.42-0.162-0.796-0.41-1.125-0.744c-0.317-0.318-0.561-0.696-0.736-1.13c-0.174-0.435-0.261-0.892-0.261-1.368
	c0-0.497,0.085-0.953,0.255-1.371c0.169-0.417,0.422-0.792,0.759-1.126c0.333-0.324,0.717-0.569,1.149-0.737
	c0.432-0.166,0.897-0.25,1.399-0.25c0.652,0,1.228,0.129,1.73,0.387c0.501,0.258,0.923,0.642,1.267,1.15l-1.574,0.755
	c-0.188-0.258-0.399-0.449-0.634-0.574c-0.236-0.126-0.498-0.189-0.789-0.189c-0.543,0-0.97,0.181-1.283,0.543
	c-0.312,0.363-0.469,0.859-0.469,1.486c0,0.633,0.157,1.133,0.469,1.497c0.313,0.365,0.739,0.546,1.283,0.546
	c0.459,0,0.845-0.113,1.152-0.34c0.308-0.225,0.488-0.526,0.539-0.904H60.153z M47.877,24.056v-7.05h1.592v2.473
	c0,0.165-0.004,0.317-0.014,0.455c-0.01,0.14-0.022,0.266-0.041,0.378c0.203-0.343,0.442-0.594,0.719-0.756
	c0.276-0.16,0.605-0.241,0.987-0.241c0.297,0,0.563,0.048,0.793,0.143c0.233,0.096,0.421,0.233,0.567,0.412
	c0.121,0.155,0.208,0.343,0.259,0.565c0.051,0.221,0.078,0.551,0.078,0.99v2.63h-1.624v-2.46c0-0.368-0.061-0.634-0.18-0.801
	c-0.12-0.167-0.312-0.25-0.576-0.25c-0.337,0-0.582,0.124-0.736,0.373c-0.155,0.248-0.233,0.652-0.233,1.211v1.928H47.877z
	 M46.881,20.972c-0.158-0.14-0.309-0.241-0.455-0.304c-0.146-0.064-0.298-0.096-0.459-0.096c-0.321,0-0.578,0.105-0.767,0.318
	c-0.189,0.213-0.284,0.5-0.284,0.864c0,0.352,0.098,0.632,0.295,0.841c0.198,0.21,0.463,0.314,0.796,0.314
	c0.165,0,0.319-0.033,0.463-0.098c0.145-0.065,0.281-0.166,0.412-0.303v1.407c-0.194,0.109-0.388,0.19-0.583,0.241
	c-0.194,0.051-0.394,0.078-0.601,0.078c-0.707,0-1.278-0.227-1.717-0.68c-0.438-0.453-0.657-1.049-0.657-1.79
	c0-0.719,0.223-1.306,0.671-1.762c0.447-0.457,1.021-0.685,1.722-0.685c0.233,0,0.444,0.023,0.632,0.068s0.367,0.118,0.533,0.219
	V20.972z M38.648,23.674l0.335-1.237c0.238,0.206,0.497,0.365,0.781,0.475s0.569,0.166,0.857,0.166c0.204,0,0.358-0.033,0.464-0.098
	c0.107-0.065,0.16-0.16,0.16-0.284c0-0.204-0.214-0.355-0.641-0.455c-0.14-0.034-0.253-0.063-0.338-0.087
	c-0.485-0.133-0.837-0.307-1.058-0.525c-0.219-0.217-0.329-0.498-0.329-0.845c0-0.445,0.168-0.801,0.503-1.068
	c0.335-0.267,0.789-0.4,1.362-0.4c0.295,0,0.595,0.034,0.899,0.103s0.617,0.174,0.935,0.315l-0.337,1.115
	c-0.214-0.146-0.433-0.256-0.656-0.333c-0.22-0.076-0.442-0.113-0.664-0.113c-0.185,0-0.325,0.029-0.418,0.087
	c-0.095,0.057-0.141,0.139-0.141,0.25c0,0.163,0.212,0.301,0.638,0.413c0.096,0.028,0.169,0.048,0.217,0.059
	c0.562,0.162,0.952,0.351,1.172,0.567c0.219,0.217,0.329,0.511,0.329,0.88c0,0.471-0.18,0.851-0.542,1.14
	c-0.36,0.291-0.839,0.435-1.432,0.435c-0.404,0-0.778-0.046-1.124-0.138C39.275,24.001,38.951,23.862,38.648,23.674z"/>
<path fill="#1A171B" d="M88.867,34.608v0.531c0.319-0.435,0.738-0.652,1.256-0.652c1.001,0,1.501,0.634,1.501,1.9v2.599h-0.745
	v-2.469c0-0.441-0.047-0.754-0.14-0.941c-0.13-0.267-0.391-0.401-0.782-0.401c-0.454,0-0.764,0.189-0.932,0.568
	c-0.105,0.255-0.159,0.643-0.159,1.165v2.078h-0.745v-4.378H88.867z M84.796,35.176c-0.454,0-0.826,0.157-1.118,0.471
	c-0.292,0.314-0.438,0.697-0.438,1.15c0,0.454,0.146,0.837,0.438,1.151s0.665,0.47,1.118,0.47s0.826-0.157,1.118-0.47
	s0.438-0.697,0.438-1.151c0-0.453-0.146-0.836-0.438-1.15C85.622,35.333,85.25,35.176,84.796,35.176z M84.796,39.107
	c-0.64,0-1.183-0.224-1.63-0.67c-0.447-0.447-0.67-0.991-0.67-1.631c0-0.646,0.223-1.194,0.67-1.644s0.991-0.675,1.63-0.675
	s1.183,0.225,1.63,0.675s0.67,0.999,0.67,1.644c0,0.64-0.223,1.184-0.67,1.631C85.979,38.884,85.436,39.107,84.796,39.107z
	 M80.958,32.428c0.143,0,0.267,0.053,0.373,0.158c0.105,0.105,0.158,0.23,0.158,0.373c0,0.149-0.053,0.275-0.158,0.377
	c-0.106,0.103-0.23,0.154-0.373,0.154s-0.267-0.051-0.373-0.154c-0.105-0.102-0.158-0.228-0.158-0.377
	c0-0.143,0.053-0.267,0.158-0.373S80.815,32.428,80.958,32.428z M81.331,34.608v4.378h-0.746v-4.378H81.331z M78.992,35.297v3.689
	h-0.745v-3.689H77.79v-0.689h0.457v-1.575h0.745v1.575h0.783v0.689H78.992z M76.832,34.608v4.378h-0.746v-0.605
	c-0.38,0.484-0.886,0.727-1.516,0.727c-0.625,0-1.137-0.233-1.536-0.699c-0.38-0.441-0.571-0.975-0.571-1.603
	c0-0.646,0.188-1.189,0.563-1.63c0.398-0.459,0.917-0.689,1.554-0.689c0.618,0,1.121,0.249,1.507,0.745v-0.624H76.832z
	 M74.652,35.176c-0.417,0-0.758,0.156-1.025,0.466c-0.267,0.31-0.4,0.68-0.4,1.108c0,0.454,0.124,0.838,0.373,1.155
	c0.267,0.341,0.621,0.512,1.062,0.512c0.46,0,0.823-0.165,1.09-0.494c0.249-0.311,0.373-0.699,0.373-1.165
	c0-0.454-0.133-0.831-0.4-1.132S75.099,35.176,74.652,35.176z M71.652,34.924v0.988h-0.019c-0.385-0.491-0.838-0.736-1.36-0.736
	c-0.441,0-0.809,0.159-1.104,0.476c-0.295,0.316-0.442,0.699-0.442,1.146c0,0.447,0.14,0.829,0.419,1.146
	c0.28,0.317,0.643,0.475,1.09,0.475c0.565,0,1.041-0.251,1.425-0.754h0.019v0.997c-0.441,0.298-0.903,0.447-1.388,0.447
	c-0.665,0-1.219-0.22-1.663-0.662c-0.444-0.441-0.666-0.99-0.666-1.649c0-0.646,0.228-1.192,0.685-1.64
	c0.457-0.447,1.008-0.67,1.653-0.67C70.792,34.487,71.243,34.632,71.652,34.924z M64.319,34.608v2.441
	c0,0.447,0.053,0.767,0.158,0.959c0.143,0.273,0.419,0.41,0.829,0.41s0.687-0.137,0.829-0.41c0.105-0.192,0.158-0.513,0.158-0.959
	v-2.441h0.745v2.524c0,1.317-0.577,1.975-1.732,1.975s-1.733-0.658-1.733-1.975v-2.524H64.319z M61.507,38.986v-0.605
	c-0.374,0.484-0.88,0.727-1.517,0.727c-0.625,0-1.137-0.233-1.536-0.699c-0.38-0.441-0.571-0.975-0.571-1.603
	c0-0.646,0.188-1.189,0.562-1.63c0.399-0.459,0.917-0.689,1.554-0.689c0.625,0,1.127,0.249,1.508,0.745v-3.931h0.746v7.686H61.507z
	 M60.072,35.176c-0.416,0-0.758,0.156-1.025,0.466c-0.267,0.31-0.4,0.68-0.4,1.108c0,0.454,0.124,0.838,0.373,1.155
	c0.267,0.341,0.621,0.512,1.062,0.512c0.46,0,0.823-0.165,1.09-0.494c0.249-0.311,0.373-0.699,0.373-1.165
	c0-0.454-0.134-0.831-0.4-1.132C60.877,35.327,60.52,35.176,60.072,35.176z M53.279,38.986v-7.024h3.643v0.727h-2.86v2.086h2.776
	v0.727h-2.776v2.758h2.86v0.727H53.279z M48.667,35.297v3.689h-0.746v-3.689h-0.41v-0.689h0.41v-1.742
	c0-0.546,0.066-0.925,0.196-1.137c0.223-0.366,0.599-0.549,1.127-0.549c0.155,0,0.333,0.031,0.531,0.093v0.755
	c-0.205-0.068-0.373-0.103-0.503-0.103c-0.273,0-0.45,0.103-0.531,0.307c-0.05,0.137-0.075,0.435-0.075,0.895v1.481h1.109v0.689
	H48.667z M44.531,35.176c-0.454,0-0.826,0.157-1.118,0.471c-0.292,0.314-0.438,0.697-0.438,1.15c0,0.454,0.146,0.837,0.438,1.151
	c0.292,0.313,0.665,0.47,1.118,0.47c0.453,0,0.826-0.157,1.118-0.47c0.292-0.313,0.438-0.697,0.438-1.151
	c0-0.453-0.146-0.836-0.438-1.15C45.357,35.333,44.984,35.176,44.531,35.176z M44.531,39.107c-0.64,0-1.183-0.224-1.63-0.67
	c-0.447-0.447-0.671-0.991-0.671-1.631c0-0.646,0.224-1.194,0.671-1.644s0.991-0.675,1.63-0.675s1.183,0.225,1.63,0.675
	c0.447,0.45,0.67,0.999,0.67,1.644c0,0.64-0.224,1.184-0.67,1.631C45.714,38.884,45.171,39.107,44.531,39.107z M36.398,38.577
	l-2.012-3.969h0.866l1.547,3.14l1.416-3.14h0.848l-3.233,6.838h-0.847L36.398,38.577z M33.659,35.297v3.689h-0.745v-3.689h-0.457
	v-0.689h0.457v-1.575h0.745v1.575h0.783v0.689H33.659z M30.949,32.428c0.143,0,0.267,0.053,0.372,0.158
	c0.106,0.105,0.158,0.23,0.158,0.373c0,0.149-0.052,0.275-0.158,0.377c-0.105,0.103-0.229,0.154-0.372,0.154
	c-0.143,0-0.268-0.051-0.373-0.154c-0.105-0.102-0.158-0.228-0.158-0.377c0-0.143,0.053-0.267,0.158-0.373
	S30.806,32.428,30.949,32.428z M31.321,34.608v4.378h-0.745v-4.378H31.321z M29.113,35.297l-0.625,0.326
	c-0.13-0.299-0.329-0.448-0.596-0.448c-0.137,0-0.261,0.047-0.373,0.14c-0.112,0.093-0.168,0.208-0.168,0.345
	c0,0.217,0.177,0.403,0.531,0.559c0.584,0.267,0.907,0.422,0.969,0.466c0.354,0.242,0.531,0.574,0.531,0.997
	c0,0.41-0.144,0.75-0.433,1.02s-0.638,0.405-1.048,0.405c-0.367,0-0.687-0.098-0.96-0.293s-0.469-0.467-0.587-0.815l0.662-0.28
	c0.211,0.466,0.509,0.699,0.894,0.699c0.205,0,0.374-0.062,0.508-0.187c0.134-0.124,0.2-0.286,0.2-0.484
	c0-0.267-0.171-0.484-0.512-0.652c-0.317-0.149-0.633-0.298-0.95-0.447c-0.342-0.224-0.512-0.531-0.512-0.922
	c0-0.36,0.127-0.657,0.382-0.89s0.562-0.349,0.922-0.349c0.249,0,0.48,0.076,0.694,0.228C28.857,34.867,29.014,35.062,29.113,35.297
	z M24.306,34.608v0.475c0.157-0.205,0.292-0.348,0.406-0.429c0.156-0.112,0.348-0.167,0.574-0.167c0.208,0,0.433,0.068,0.678,0.205
	l-0.354,0.68c-0.193-0.13-0.342-0.196-0.447-0.196c-0.571,0-0.857,0.541-0.857,1.621v2.189h-0.745v-4.378H24.306z M19.173,36.322
	h2.618c-0.049-0.323-0.195-0.594-0.438-0.815c-0.242-0.22-0.524-0.331-0.848-0.331c-0.323,0-0.615,0.112-0.875,0.335
	C19.368,35.735,19.216,36.005,19.173,36.322z M22.573,36.956h-3.438c0.006,0.41,0.143,0.756,0.41,1.039
	c0.267,0.283,0.609,0.424,1.025,0.424c0.553,0,0.997-0.301,1.333-0.903l0.633,0.363c-0.441,0.82-1.115,1.229-2.021,1.229
	c-0.64,0-1.157-0.216-1.552-0.647c-0.394-0.432-0.591-0.967-0.591-1.607c0-0.677,0.183-1.233,0.55-1.668
	c0.391-0.465,0.916-0.698,1.574-0.698c0.677,0,1.208,0.249,1.593,0.745C22.449,35.698,22.61,36.272,22.573,36.956z M14.599,34.608
	l1.304,2.943l1.305-2.943h0.838l-2.143,4.667l-2.152-4.667H14.599z M12.521,32.428c0.143,0,0.267,0.053,0.373,0.158
	s0.158,0.23,0.158,0.373c0,0.149-0.052,0.275-0.158,0.377c-0.105,0.103-0.23,0.154-0.373,0.154c-0.143,0-0.268-0.051-0.373-0.154
	c-0.105-0.102-0.158-0.228-0.158-0.377c0-0.143,0.053-0.267,0.158-0.373S12.378,32.428,12.521,32.428z M12.894,34.608v4.378h-0.746
	v-4.378H12.894z M7.835,34.608v0.531c0.318-0.435,0.738-0.652,1.256-0.652c1.001,0,1.501,0.634,1.501,1.9v2.599H9.848v-2.469
	c0-0.441-0.047-0.754-0.14-0.941c-0.13-0.267-0.391-0.401-0.783-0.401c-0.453,0-0.763,0.189-0.931,0.568
	c-0.106,0.255-0.159,0.643-0.159,1.165v2.078H7.09v-4.378H7.835z M1.472,31.962v4.183c0,0.379,0.009,0.649,0.028,0.811
	c0.043,0.304,0.138,0.557,0.284,0.759c0.146,0.202,0.355,0.365,0.629,0.489c0.255,0.118,0.516,0.177,0.783,0.177
	c0.571,0,1.031-0.208,1.378-0.624c0.162-0.199,0.264-0.454,0.308-0.764c0.025-0.155,0.037-0.438,0.037-0.848v-4.183h0.783v4.397
	c0,0.441-0.034,0.789-0.102,1.043c-0.087,0.335-0.258,0.637-0.513,0.904c-0.509,0.534-1.14,0.801-1.891,0.801
	c-0.714,0-1.32-0.239-1.817-0.717c-0.279-0.273-0.472-0.587-0.577-0.941c-0.075-0.267-0.112-0.63-0.112-1.09v-4.397H1.472z"/>
<line fill="none" stroke="#205B9E" stroke-width="1.0001" stroke-miterlimit="22.9256" x1="0" y1="27.671" x2="121.89" y2="27.671"/>
</svg>
