<?xml version="1.0" encoding="utf-8"?>
<!-- Generator: Adobe Illustrator 14.0.0, SVG Export Plug-In . SVG Version: 6.00 Build 43363)  -->
<!DOCTYPE svg PUBLIC "-//W3C//DTD SVG 1.1//EN" "http://www.w3.org/Graphics/SVG/1.1/DTD/svg11.dtd">
<svg version="1.1" id="Ebene_1" xmlns="http://www.w3.org/2000/svg" xmlns:xlink="http://www.w3.org/1999/xlink" x="0px" y="0px"
	 width="454px" height="169.5px" viewBox="0 0 454 169.5" enable-background="new 0 0 454 169.5" xml:space="preserve">
<g>
	<path fill="#79B530" d="M57.075,43.879c-11.361,0-31.838-0.003-42.639-0.003c0,11.4,0,119.101,0,119.101h8.55
		c0-18.787,15.189-34.05,33.975-34.05c23.483,0,42.633-19.044,42.633-42.527S80.557,43.879,57.075,43.879z M57.075,120.565
		c-18.787,0-34.016-15.229-34.016-34.016c0-18.787,15.229-34.016,34.016-34.016c18.786,0,34.016,15.229,34.016,34.016
		C91.09,105.336,75.861,120.565,57.075,120.565z"/>
	<path fill="#79B530" d="M150.488,44.01c-18.786,0-34.053-15.25-34.053-34.036L108,9.949V129l8.512-0.073l-0.003-42.377
		c0-18.787,15.23-34.016,34.016-34.016s34.016,15.229,34.016,34.016l-0.004,42.377h8.475l0.033-42.377
		C193.045,63.066,173.971,44.01,150.488,44.01z"/>
	<path d="M214.448,61.348c2.257,0,4.514-1.094,4.514-4.764V44.797h-0.958v11.968c0,2.28-1.208,3.807-3.556,3.807
		c-2.531,0-3.557-1.527-3.557-3.807V44.797h-0.958v11.786C209.934,60.481,212.191,61.348,214.448,61.348z"/>
	<path d="M222.177,53.438c0-2.075,1.026-3.784,2.85-3.784c1.482,0,2.371,0.729,2.371,2.85v8.571h0.866v-8.982
		c0-2.257-1.322-3.214-3.009-3.214c-1.619,0-2.622,1.026-3.032,2.075h-0.046v-1.801h-0.866v11.922h0.866V53.438z"/>
	<rect x="230.682" y="44.797" width="0.866" height="2.325"/>
	<rect x="230.682" y="49.152" width="0.866" height="11.922"/>
	<polygon points="237.383,61.074 240.62,49.152 239.663,49.152 236.904,59.98 236.859,59.98 233.964,49.152 233.006,49.152 
		236.357,61.074 	"/>
	<path d="M245.541,61.348c2.69,0,3.693-2.348,3.693-4.171h-0.866c0,0.889-0.411,3.396-2.918,3.396c-2.781,0-2.804-3.602-2.804-5.517
		h6.748c0-3.853-0.912-6.178-3.716-6.178c-2.69,0-3.989,2.257-3.989,5.904C241.688,58.84,242.464,61.348,245.541,61.348z
		 M245.632,49.653c2.462,0,2.804,2.462,2.804,4.627h-5.791C242.646,52.73,242.988,49.653,245.632,49.653z"/>
	<path d="M252.176,51.226h-0.046v-2.074h-0.866v11.922h0.866v-7.568c0-1.96,1.003-3.853,3.032-3.853h0.501v-0.775h-0.501
		C253.589,48.878,252.609,49.858,252.176,51.226z"/>
	<path d="M259.653,61.348c1.892,0,3.442-1.276,3.442-3.283c0-1.618-0.729-2.622-2.166-3.168l-1.824-0.684
		c-1.186-0.456-1.778-1.094-1.778-2.348c0-1.573,1.049-2.211,2.303-2.211c1.96,0,2.234,1.436,2.234,2.507v0.342h0.866v-0.365
		c0-1.459-0.456-3.26-3.1-3.26c-1.892,0-3.26,1.094-3.26,3.078c0,1.527,0.752,2.394,2.234,2.986l1.755,0.707
		c1.322,0.524,1.778,1.3,1.778,2.439c0,1.322-0.729,2.485-2.485,2.485c-1.983,0-2.667-1.231-2.667-2.918v-0.388h-0.866v0.319
		C256.12,58.977,256.348,61.348,259.653,61.348z"/>
	<rect x="264.871" y="44.797" width="0.867" height="2.325"/>
	<rect x="264.871" y="49.152" width="0.867" height="11.922"/>
	<path d="M268.791,59.205c0,1.299,0.524,2.006,1.755,2.006c0.342,0,0.798-0.045,1.231-0.137v-0.775
		c-0.387,0.114-0.707,0.137-1.071,0.137c-0.501,0-1.049-0.183-1.049-1.322v-9.187h1.983v-0.775h-1.983v-3.534h-0.866v3.534h-1.619
		v0.775h1.619V59.205z"/>
	<path d="M274.989,62.442c-0.433,1.55-0.889,1.87-2.006,1.87c-0.274,0-0.433-0.023-0.752-0.046v0.775
		c0.296,0.022,0.593,0.045,0.889,0.045c1.391,0,2.188-0.593,2.645-2.234l3.693-13.701H278.5l-2.645,10.691h-0.045l-3.009-10.691
		h-0.958l3.511,12.037L274.989,62.442z"/>
	<path d="M289.918,61.348c3.283,0,4.058-2.804,4.058-6.246c0-3.419-0.775-6.224-3.921-6.224c-3.283,0-4.058,2.804-4.058,6.224
		C285.998,58.544,286.772,61.348,289.918,61.348z M289.987,49.653c2.28,0,3.032,2.029,3.032,5.471c0,3.419-0.752,5.448-3.032,5.448
		s-3.032-2.029-3.032-5.448C286.955,51.682,287.707,49.653,289.987,49.653z"/>
	<path d="M296.64,61.074h0.866V49.927h1.983v-0.775h-1.983v-2.029c0-1.208,0.616-1.55,1.368-1.55c0.319,0,0.547,0.022,0.752,0.068
		v-0.775c-0.296-0.068-0.616-0.068-0.889-0.068c-1.596,0-2.097,1.003-2.097,2.371v1.983h-1.619v0.775h1.619V61.074z"/>
	<polygon points="314.329,60.208 307.307,60.208 307.307,53.027 313.667,53.027 313.667,52.161 307.307,52.161 307.307,45.664 
		314.123,45.664 314.123,44.797 306.35,44.797 306.35,61.074 314.329,61.074 	"/>
	<path d="M319.249,61.348c1.664,0,2.713-0.957,3.009-2.576h0.045v2.302h0.866V44.797h-0.866v6.452h-0.045
		c-0.433-1.277-1.322-2.371-2.963-2.371c-2.941,0-3.762,2.553-3.762,6.201C315.533,58.772,316.468,61.348,319.249,61.348z
		 M319.34,49.653c1.801,0,2.986,1.504,2.963,5.425c0,3.488-0.798,5.494-2.918,5.494c-2.348,0-2.895-2.462-2.895-5.494
		C316.491,51.454,317.289,49.653,319.34,49.653z"/>
	<path d="M328.546,61.348c1.619,0,2.622-1.026,3.032-2.074h0.045v1.801h0.866V49.152h-0.866v7.637c0,2.074-1.026,3.784-2.85,3.784
		c-1.481,0-2.371-0.729-2.371-2.85v-8.571h-0.866v8.981C325.538,60.391,326.86,61.348,328.546,61.348z"/>
	<path d="M338.51,60.573c-2.211,0-3.032-1.755-3.032-5.471c0-3.419,0.821-5.448,3.032-5.448c2.052,0,2.53,2.188,2.53,2.918h0.958
		c0-0.866-0.57-3.693-3.465-3.693c-2.804,0-4.012,2.234-4.012,6.178c0,3.579,0.775,6.292,3.853,6.292s3.693-3.055,3.693-4.171
		h-0.958C341.108,58.065,340.698,60.573,338.51,60.573z"/>
	<path d="M348.061,54.03l-2.576,0.707c-1.687,0.456-2.417,1.482-2.417,3.283c0,1.847,0.912,3.328,2.987,3.328
		c1.596,0,2.781-0.957,3.123-2.188h0.045v0.752c0,0.935,0.661,1.299,1.026,1.299c0.388,0,0.729-0.068,0.912-0.205v-0.684
		c-0.159,0.091-0.342,0.114-0.547,0.114c-0.296,0-0.524-0.228-0.524-0.798v-7.614c0-1.709-0.638-3.146-3.26-3.146
		c-2.781,0-3.374,2.052-3.374,3.67h0.866c0-1.641,0.593-2.895,2.599-2.895c1.299,0,2.302,0.456,2.302,2.622
		C349.224,53.278,349.087,53.757,348.061,54.03z M349.178,54.121h0.045v2.462c0,2.394-0.98,3.989-3.009,3.989
		c-1.504,0-2.188-1.003-2.188-2.553c0-1.414,0.501-2.234,1.892-2.622l1.755-0.479C348.563,54.668,348.882,54.6,349.178,54.121z"/>
	<path d="M353.19,59.205c0,1.299,0.524,2.006,1.755,2.006c0.342,0,0.798-0.045,1.231-0.137v-0.775
		c-0.388,0.114-0.707,0.137-1.072,0.137c-0.501,0-1.048-0.183-1.048-1.322v-9.187h1.983v-0.775h-1.983v-3.534h-0.866v3.534h-1.619
		v0.775h1.619V59.205z"/>
	<rect x="357.291" y="49.152" width="0.866" height="11.922"/>
	<rect x="357.291" y="44.797" width="0.866" height="2.325"/>
	<path d="M364.334,48.878c-3.282,0-4.058,2.804-4.058,6.224c0,3.442,0.775,6.246,3.921,6.246c3.283,0,4.058-2.804,4.058-6.246
		C368.255,51.682,367.48,48.878,364.334,48.878z M364.266,60.573c-2.279,0-3.032-2.029-3.032-5.448c0-3.442,0.752-5.471,3.032-5.471
		c2.28,0,3.032,2.029,3.032,5.471C367.298,58.544,366.545,60.573,364.266,60.573z"/>
	<path d="M371.147,53.438c0-2.075,1.026-3.784,2.85-3.784c1.482,0,2.371,0.729,2.371,2.85v8.571h0.866v-8.982
		c0-2.257-1.322-3.214-3.009-3.214c-1.619,0-2.622,1.026-3.032,2.075h-0.045v-1.801h-0.866v11.922h0.866V53.438z"/>
	<polygon points="218.118,85.408 211.096,85.408 211.096,78.228 217.457,78.228 217.457,77.361 211.096,77.361 211.096,70.864 
		217.913,70.864 217.913,69.998 210.139,69.998 210.139,86.274 218.118,86.274 	"/>
	<path d="M223.175,86.548c3.078,0,3.693-3.055,3.693-4.171h-0.958c0,0.889-0.41,3.396-2.599,3.396c-2.211,0-3.032-1.755-3.032-5.471
		c0-3.419,0.821-5.448,3.032-5.448c2.052,0,2.53,2.188,2.53,2.918h0.958c0-0.866-0.57-3.693-3.465-3.693
		c-2.804,0-4.012,2.234-4.012,6.178C219.323,83.835,220.098,86.548,223.175,86.548z"/>
	<path d="M236.169,80.302c0-3.419-0.775-6.223-3.921-6.223c-3.283,0-4.058,2.804-4.058,6.223c0,3.442,0.775,6.246,3.921,6.246
		C235.394,86.548,236.169,83.744,236.169,80.302z M232.179,85.773c-2.279,0-3.032-2.029-3.032-5.448
		c0-3.442,0.752-5.471,3.032-5.471c2.28,0,3.032,2.029,3.032,5.471C235.211,83.744,234.459,85.773,232.179,85.773z"/>
	<rect x="238.285" y="69.998" width="0.867" height="16.276"/>
	<path d="M245.124,86.548c2.69,0,3.693-2.348,3.693-4.171h-0.866c0,0.889-0.411,3.396-2.918,3.396c-2.781,0-2.804-3.602-2.804-5.517
		h6.748c0-3.853-0.912-6.178-3.716-6.178c-2.69,0-3.99,2.257-3.99,5.904C241.271,84.041,242.046,86.548,245.124,86.548z
		 M245.215,74.854c2.462,0,2.804,2.462,2.804,4.628h-5.791C242.229,77.931,242.571,74.854,245.215,74.854z"/>
	<path d="M260.604,86.548c2.576,0,4.719-1.641,4.719-4.536c0-2.394-1.208-3.419-3.306-4.149l-2.417-0.844
		c-1.413-0.479-2.394-1.345-2.394-3.146c0-2.53,1.664-3.374,3.488-3.374c2.302,0,3.305,1.459,3.305,3.647h0.958
		c0-2.713-1.345-4.423-4.354-4.423c-2.553,0-4.354,1.619-4.354,4.24c0,2.211,1.163,3.26,3.306,3.989l1.847,0.639
		c1.824,0.638,2.963,1.368,2.963,3.488c0,2.074-1.504,3.693-3.761,3.693c-2.348,0-3.693-1.596-3.693-3.67v-0.843h-0.957v1.071
		C255.954,83.904,256.843,86.548,260.604,86.548z"/>
	<path d="M273.326,84.474h0.045v1.801h0.866V74.352h-0.866v7.637c0,2.075-1.026,3.784-2.85,3.784c-1.481,0-2.371-0.729-2.371-2.85
		v-8.571h-0.866v8.982c0,2.257,1.322,3.214,3.009,3.214C271.912,86.548,272.915,85.522,273.326,84.474z"/>
	<path d="M284.246,80.279c0-3.488-0.843-6.201-3.67-6.201c-1.847,0-2.622,1.094-3.055,2.371h-0.045v-2.097h-0.866v15.935h0.866
		v-6.314h0.045c0.296,1.619,1.345,2.576,3.009,2.576C283.312,86.548,284.246,83.972,284.246,80.279z M280.394,85.773
		c-2.12,0-2.918-2.006-2.918-5.494c0-3.67,0.889-5.426,3.078-5.426c1.619,0,2.735,1.596,2.735,5.426
		C283.289,83.311,282.742,85.773,280.394,85.773z"/>
	<polygon points="289.76,72.688 291.879,69.496 290.785,69.496 289.007,72.688 	"/>
	<path d="M289.828,86.548c2.69,0,3.693-2.348,3.693-4.171h-0.866c0,0.889-0.411,3.396-2.918,3.396c-2.781,0-2.804-3.602-2.804-5.517
		h6.748c0-3.853-0.912-6.178-3.716-6.178c-2.69,0-3.99,2.257-3.99,5.904C285.975,84.041,286.75,86.548,289.828,86.548z
		 M289.919,74.854c2.462,0,2.804,2.462,2.804,4.628h-5.791C286.933,77.931,287.275,74.854,289.919,74.854z"/>
	<path d="M295.551,74.352v11.922h0.866v-7.568c0-1.96,1.003-3.853,3.032-3.853h0.501v-0.775h-0.501c-1.573,0-2.553,0.98-2.986,2.348
		h-0.046v-2.074H295.551z"/>
	<rect x="301.136" y="74.352" width="0.866" height="11.922"/>
	<rect x="301.136" y="69.998" width="0.866" height="2.325"/>
	<path d="M307.975,86.548c2.69,0,3.693-2.348,3.693-4.171h-0.866c0,0.889-0.41,3.396-2.918,3.396c-2.781,0-2.804-3.602-2.804-5.517
		h6.748c0-3.853-0.912-6.178-3.716-6.178c-2.69,0-3.989,2.257-3.989,5.904C304.122,84.041,304.897,86.548,307.975,86.548z
		 M308.066,74.854c2.462,0,2.804,2.462,2.804,4.628h-5.79C305.08,77.931,305.421,74.854,308.066,74.854z"/>
	<path d="M319.784,81.989c0,2.075-1.026,3.784-2.85,3.784c-1.481,0-2.371-0.729-2.371-2.85v-8.571h-0.866v8.982
		c0,2.257,1.322,3.214,3.009,3.214c1.618,0,2.622-1.025,3.032-2.074h0.045v1.801h0.866V74.352h-0.866V81.989z"/>
	<path d="M322.977,74.352v11.922h0.866v-7.568c0-1.96,1.003-3.853,3.032-3.853h0.501v-0.775h-0.501c-1.573,0-2.553,0.98-2.986,2.348
		h-0.045v-2.074H322.977z"/>
	<path d="M332.164,74.079c-2.69,0-3.989,2.257-3.989,5.904c0,4.058,0.775,6.565,3.853,6.565c2.69,0,3.693-2.348,3.693-4.171h-0.866
		c0,0.889-0.41,3.396-2.918,3.396c-2.781,0-2.804-3.602-2.804-5.517h6.748C335.88,76.404,334.968,74.079,332.164,74.079z
		 M332.119,74.854c2.462,0,2.804,2.462,2.804,4.628h-5.791C329.132,77.931,329.474,74.854,332.119,74.854z"/>
	<path d="M349.651,83.972h0.045v2.302h0.866V69.998h-0.866v6.451h-0.045c-0.433-1.276-1.322-2.371-2.964-2.371
		c-2.94,0-3.761,2.553-3.761,6.201c0,3.693,0.935,6.269,3.716,6.269C348.306,86.548,349.354,85.591,349.651,83.972z M343.883,80.279
		c0-3.625,0.798-5.426,2.85-5.426c1.801,0,2.986,1.504,2.963,5.426c0,3.488-0.798,5.494-2.918,5.494
		C344.43,85.773,343.883,83.311,343.883,80.279z"/>
	<path d="M352.634,79.983c0,4.058,0.775,6.565,3.853,6.565c2.69,0,3.693-2.348,3.693-4.171h-0.866c0,0.889-0.41,3.396-2.918,3.396
		c-2.781,0-2.804-3.602-2.804-5.517h6.748c0-3.853-0.912-6.178-3.716-6.178C353.933,74.079,352.634,76.335,352.634,79.983z
		 M356.578,74.854c2.462,0,2.804,2.462,2.804,4.628h-5.79C353.591,77.931,353.933,74.854,356.578,74.854z"/>
	<path d="M368.867,79.025h3.055c2.918,0,4.627-1.755,4.627-4.514c0-1.755-0.615-4.445-4.422-4.514h-4.217v16.276h0.958V79.025z
		 M368.867,70.773h3.283c2.211,0,3.442,1.414,3.442,3.739c0,2.69-1.642,3.738-3.579,3.738h-3.146V70.773z"/>
	<polygon points="383.843,69.496 382.749,69.496 380.971,72.688 381.723,72.688 	"/>
	<path d="M381.792,86.548c2.69,0,3.693-2.348,3.693-4.171h-0.866c0,0.889-0.41,3.396-2.918,3.396c-2.781,0-2.804-3.602-2.804-5.517
		h6.748c0-3.853-0.912-6.178-3.716-6.178c-2.69,0-3.989,2.257-3.989,5.904C377.939,84.041,378.714,86.548,381.792,86.548z
		 M381.883,74.854c2.462,0,2.804,2.462,2.804,4.628h-5.791C378.896,77.931,379.238,74.854,381.883,74.854z"/>
	<path d="M393.989,76.449h-0.046c-0.433-1.276-1.322-2.371-2.963-2.371c-2.941,0-3.761,2.553-3.761,6.201
		c0,3.693,0.935,6.269,3.716,6.269c1.664,0,2.712-0.957,3.009-2.576h0.046v2.302h0.866V69.998h-0.866V76.449z M391.071,85.773
		c-2.348,0-2.895-2.462-2.895-5.494c0-3.625,0.798-5.426,2.849-5.426c1.801,0,2.987,1.504,2.964,5.426
		C393.989,83.767,393.191,85.773,391.071,85.773z"/>
	<path d="M403.628,84.838v-7.614c0-1.71-0.638-3.146-3.26-3.146c-2.781,0-3.374,2.051-3.374,3.67h0.866
		c0-1.641,0.593-2.895,2.599-2.895c1.299,0,2.302,0.456,2.302,2.622c0,1.003-0.137,1.482-1.163,1.755l-2.576,0.707
		c-1.687,0.456-2.417,1.482-2.417,3.283c0,1.847,0.912,3.328,2.986,3.328c1.596,0,2.781-0.957,3.123-2.188h0.045v0.752
		c0,0.935,0.661,1.299,1.026,1.299c0.388,0,0.729-0.068,0.912-0.205v-0.684c-0.16,0.091-0.342,0.114-0.547,0.114
		C403.856,85.636,403.628,85.408,403.628,84.838z M402.762,81.784c0,2.394-0.98,3.989-3.009,3.989c-1.505,0-2.188-1.003-2.188-2.553
		c0-1.413,0.501-2.234,1.892-2.622l1.755-0.479c0.889-0.251,1.208-0.319,1.504-0.798h0.045V81.784z"/>
	<path d="M412.564,76.335h-0.046c-0.456-1.391-1.413-2.257-2.963-2.257c-3.146,0-3.761,2.918-3.761,6.178s0.775,6.018,3.579,6.018
		c2.097,0,2.781-1.368,3.123-2.417h0.068v2.188c0,2.485-0.843,3.648-2.873,3.648c-1.687,0-2.462-0.958-2.462-2.189h-0.866
		c0,0.616,0.205,2.964,3.237,2.964c2.964,0,3.83-1.915,3.83-4.856V74.352h-0.866V76.335z M409.646,85.5
		c-2.257,0-2.895-2.188-2.895-5.243c0-4.058,1.094-5.403,3.009-5.403c1.87,0,2.804,1.755,2.804,5.22
		C412.564,83.311,411.812,85.5,409.646,85.5z"/>
	<path d="M419.559,74.079c-3.283,0-4.058,2.804-4.058,6.223c0,3.442,0.775,6.246,3.921,6.246c3.283,0,4.058-2.804,4.058-6.246
		C423.48,76.882,422.705,74.079,419.559,74.079z M419.491,85.773c-2.28,0-3.032-2.029-3.032-5.448c0-3.442,0.752-5.471,3.032-5.471
		s3.032,2.029,3.032,5.471C422.522,83.744,421.771,85.773,419.491,85.773z"/>
	<path d="M431.979,76.335h-0.045c-0.456-1.391-1.413-2.257-2.963-2.257c-3.146,0-3.762,2.918-3.762,6.178s0.775,6.018,3.579,6.018
		c2.098,0,2.781-1.368,3.123-2.417h0.068v2.188c0,2.485-0.843,3.648-2.872,3.648c-1.687,0-2.462-0.958-2.462-2.189h-0.866
		c0,0.616,0.205,2.964,3.237,2.964c2.963,0,3.83-1.915,3.83-4.856V74.352h-0.867V76.335z M429.062,85.5
		c-2.257,0-2.895-2.188-2.895-5.243c0-4.058,1.094-5.403,3.009-5.403c1.869,0,2.804,1.755,2.804,5.22
		C431.979,83.311,431.228,85.5,429.062,85.5z"/>
	<rect x="435.305" y="69.998" width="0.866" height="2.325"/>
	<rect x="435.305" y="74.352" width="0.866" height="11.922"/>
	<path d="M442.052,85.773c-2.781,0-2.804-3.602-2.804-5.517h6.748c0-3.853-0.912-6.178-3.716-6.178c-2.69,0-3.99,2.257-3.99,5.904
		c0,4.058,0.775,6.565,3.853,6.565c2.69,0,3.693-2.348,3.693-4.171h-0.866C444.97,83.266,444.56,85.773,442.052,85.773z
		 M442.234,74.854c2.462,0,2.804,2.462,2.804,4.628h-5.791C439.248,77.931,439.59,74.854,442.234,74.854z"/>
	<polygon fill="#79B530" points="229.777,108.084 223.045,108.084 215.873,115.537 215.873,100.19 210.183,100.19 210.183,128.8 
		215.873,128.8 215.873,121.667 218.077,119.544 223.767,128.8 230.659,128.8 221.963,115.697 	"/>
	<path fill="#79B530" d="M251.62,113.413c0-4.969-4.968-5.89-9.096-5.89c-4.648,0-9.416,1.603-9.737,6.932h5.69
		c0.2-2.244,1.603-3.125,3.767-3.125c2.003,0,3.686,0.361,3.686,2.805c0,2.324-3.246,2.204-6.731,2.725
		c-3.526,0.48-7.052,1.603-7.052,6.291c0,4.247,3.125,6.21,7.052,6.21c2.524,0,5.169-0.681,6.972-2.564
		c0.04,0.681,0.2,1.362,0.4,2.003h5.771c-0.521-0.841-0.722-2.725-0.722-4.608V113.413z M245.93,120.786
		c0,1.242-0.16,4.768-4.608,4.768c-1.843,0-3.486-0.521-3.486-2.645c0-2.083,1.603-2.685,3.366-3.045
		c1.763-0.321,3.767-0.361,4.728-1.202V120.786z"/>
	<path fill="#79B530" d="M261.883,111.931h-0.08v-3.847h-5.409V128.8h5.69v-9.336c0-3.646,1.442-6.652,5.609-6.652
		c0.682,0,1.523,0.081,2.044,0.201v-5.289c-0.361-0.121-0.842-0.201-1.242-0.201C265.73,107.523,262.925,109.326,261.883,111.931z"
		/>
	<rect x="272.503" y="100.19" fill="#79B530" width="5.69" height="28.609"/>
	<path fill="#79B530" d="M294.657,116.338c-3.246-0.761-6.452-1.042-6.452-3.085c0-1.683,1.883-1.923,3.166-1.923
		c2.044,0,3.727,0.601,3.887,2.805h5.41c-0.441-5.089-4.608-6.612-9.136-6.612c-4.448,0-9.016,1.362-9.016,6.652
		c0,3.646,3.286,4.808,6.571,5.529c4.087,0.882,6.451,1.483,6.451,3.206c0,2.003-2.083,2.645-3.727,2.645
		c-2.244,0-4.328-1.001-4.368-3.486h-5.409c0.24,5.489,4.928,7.292,9.737,7.292c4.728,0,9.457-1.763,9.457-7.212
		C301.229,118.302,297.983,117.1,294.657,116.338z"/>
	<path fill="#79B530" d="M310.405,111.931h-0.08v-3.847h-5.409V128.8h5.69v-9.336c0-3.646,1.442-6.652,5.609-6.652
		c0.681,0,1.523,0.081,2.043,0.201v-5.289c-0.36-0.121-0.841-0.201-1.242-0.201C314.251,107.523,311.447,109.326,310.405,111.931z"
		/>
	<path fill="#79B530" d="M334.608,118.943c0,4.208-1.322,5.93-4.408,5.93c-2.645,0-3.646-1.683-3.646-5.089v-11.7h-5.69v12.742
		c0,5.129,1.522,8.535,7.573,8.535c2.404,0,4.888-1.122,6.331-3.446h0.121v2.885h5.409v-20.716h-5.69V118.943z"/>
	<path fill="#79B530" d="M356.844,107.523c-2.124,0-4.608,1.122-6.051,3.446h-0.12V100.19h-5.69V128.8h5.69v-10.858
		c0-4.208,1.322-5.931,4.408-5.931c2.645,0,3.646,1.683,3.646,5.089v11.7h5.69v-12.742
		C364.417,110.929,362.895,107.523,356.844,107.523z"/>
	<path fill="#79B530" d="M378.68,107.523c-6.291,0-10.579,4.729-10.579,10.939c0,6.411,4.047,10.899,10.579,10.899
		c4.688,0,8.094-2.083,9.697-6.972h-5.009c-0.361,1.282-2.204,2.685-4.488,2.685c-3.166,0-4.929-1.643-5.089-5.25h14.946
		C389.138,113.454,385.732,107.523,378.68,107.523z M373.791,116.218c0.08-1.603,1.122-4.408,4.729-4.408
		c2.765,0,4.007,1.522,4.528,4.408H373.791z"/>
</g>
</svg>
